<svg version="1.2" xmlns="http://www.w3.org/2000/svg" viewBox="0 0 500 1020" width="500" height="1020">
	<style>
		.s0 { fill: none;stroke: #1b130c;stroke-miterlimit:10;stroke-width: 2.5 } 
		.s1 { fill: #1b130c } 
		.s2 { fill: none;stroke: #1b130c;stroke-linejoin: round;stroke-width: 2.5 } 
		.s3 { fill: #1b130c } 
	</style>
	<g id="BACKGROUND">
		<g id="&lt;Group&gt;">
		</g>
	</g>
	<filter id="f0">
		<feFlood flood-color="#737373" flood-opacity="1" />
		<feBlend mode="normal" in2="SourceGraphic"/>
		<feComposite in2="SourceAlpha" operator="in" />
	</filter>
	<g id="OBJECTS" filter="url(#f0)">
		<g id="&lt;Group&gt;">
			<g id="&lt;Group&gt;">
			</g>
			<g id="&lt;Group&gt;">
			</g>
			<g id="&lt;Group&gt;">
			</g>
			<g id="&lt;Group&gt;">
			</g>
			<path id="&lt;Path&gt;" class="s0" d="m500 547.98h-103.48"/>
			<path id="&lt;Path&gt;" class="s0" d="m440.75 1019.99v-82.17-93.11"/>
			<path id="&lt;Path&gt;" class="s0" d="m440.75 307.82v240.16 89.87 54.28 67.1 12.5"/>
			<path id="&lt;Path&gt;" class="s0" d="m500 808.67h-22.16"/>
			<path id="&lt;Path&gt;" class="s0" d="m249.18 808.67h1.64 152"/>
			<path id="&lt;Path&gt;" class="s0" d="m249.17 937.82h191.57"/>
			<path id="&lt;Path&gt;" class="s0" d="m396.52 637.84h103.48"/>
			<path id="&lt;Path&gt;" class="s0" d="m249.17 0v99.99"/>
			<path id="&lt;Path&gt;" class="s0" d="m249.17 62.11h250.83"/>
			<path id="&lt;Path&gt;" class="s0" d="m250 99.99h21.3c114.78 0 207.82 93.04 207.82 207.82"/>
			<path id="&lt;Path&gt;" class="s0" d="m411.06 62.11v91.89"/>
			<path id="&lt;Path&gt;" class="s0" d="m440.74 759.23h59.26"/>
			<path id="&lt;Path&gt;" class="s0" d="m440.74 692.13h59.26"/>
			<path id="&lt;Path&gt;" class="s0" d="m500 307.81h-130.83"/>
			<path id="&lt;Path&gt;" class="s0" d="m0 547.98h103.47"/>
			<path id="&lt;Path&gt;" class="s0" d="m59.26 1019.99v-175.25"/>
			<path id="&lt;Path&gt;" class="s0" d="m59.26 771.71v-463.89"/>
			<path id="&lt;Path&gt;" class="s0" d="m22.72 808.67h-22.72"/>
			<path id="&lt;Path&gt;" class="s0" d="m250.82 808.67h-155.05"/>
			<path id="&lt;Path&gt;" class="s0" d="m250.82 937.82h-191.57"/>
			<path id="&lt;Path&gt;" class="s0" d="m103.47 637.84h-103.47"/>
			<path id="&lt;Path&gt;" class="s0" d="m250.82 62.11h-250.82"/>
			<path id="&lt;Path&gt;" class="s0" d="m250 99.99h-21.31c-114.78 0-207.82 93.04-207.82 207.82"/>
			<path id="&lt;Path&gt;" class="s0" d="m88.93 62.11v91.89"/>
			<path id="&lt;Path&gt;" class="s0" d="m59.25 759.23h-59.25"/>
			<path id="&lt;Path&gt;" class="s0" d="m59.25 692.13h-59.25"/>
			<path id="&lt;Path&gt;" class="s0" d="m0 307.81h130.83"/>
			<path id="&lt;Path&gt;" class="s1" d="m417.85 462.87c12.65 0 22.9 10.25 22.9 22.89 0-12.64 10.25-22.89 22.89-22.89-12.64 0-22.89-10.25-22.89-22.9 0 12.65-10.25 22.9-22.9 22.9z"/>
			<path id="&lt;Path&gt;" class="s1" d="m427.92 615.42c7.09 0 12.83 5.74 12.83 12.82 0-7.08 5.74-12.82 12.82-12.82-7.08 0-12.82-5.75-12.82-12.83 0 7.08-5.74 12.83-12.83 12.83z"/>
			<path id="&lt;Path&gt;" class="s1" d="m456.56 692.13c5.84 0 10.58 4.73 10.58 10.58 0-5.85 4.74-10.58 10.58-10.58-5.84 0-10.58-4.74-10.58-10.58 0 5.84-4.74 10.58-10.58 10.58z"/>
			<path id="&lt;Path&gt;" class="s1" d="m361.8 937.82c14.3 0 25.9 11.59 25.9 25.9 0-14.31 11.6-25.9 25.9-25.9-14.3 0-25.9-11.6-25.9-25.91 0 14.31-11.6 25.91-25.9 25.91z"/>
			<path id="&lt;Path&gt;" class="s1" d="m427.92 577.47c7.09 0 12.83 5.74 12.83 12.83 0-7.09 5.74-12.83 12.82-12.83-7.08 0-12.82-5.74-12.82-12.83 0 7.09-5.74 12.83-12.83 12.83z"/>
			<path id="&lt;Path&gt;" class="s1" d="m80.48 462.87c-12.64 0-22.89 10.25-22.89 22.89 0-12.64-10.25-22.89-22.9-22.89 12.65 0 22.9-10.25 22.9-22.9 0 12.65 10.25 22.9 22.89 22.9z"/>
			<path id="&lt;Path&gt;" class="s1" d="m70.41 615.42c-7.08 0-12.82 5.74-12.82 12.82 0-7.08-5.74-12.82-12.83-12.82 7.09 0 12.83-5.75 12.83-12.83 0 7.08 5.74 12.83 12.82 12.83z"/>
			<path id="&lt;Path&gt;" class="s1" d="m41.78 692.13c-5.85 0-10.58 4.73-10.58 10.58 0-5.85-4.74-10.58-10.59-10.58 5.85 0 10.59-4.74 10.59-10.58 0 5.84 4.73 10.58 10.58 10.58z"/>
			<path id="&lt;Path&gt;" class="s1" d="m136.54 937.82c-14.31 0-25.9 11.59-25.9 25.9 0-14.31-11.6-25.9-25.91-25.9 14.31 0 25.91-11.6 25.91-25.91 0 14.31 11.59 25.91 25.9 25.91z"/>
			<path id="&lt;Path&gt;" class="s1" d="m70.41 577.47c-7.08 0-12.82 5.74-12.82 12.83 0-7.09-5.74-12.83-12.83-12.83 7.09 0 12.83-5.74 12.83-12.83 0 7.09 5.74 12.83 12.82 12.83z"/>
		</g>
		<g id="&lt;Group&gt;">
			<g id="&lt;Group&gt;">
				<g id="&lt;Group&gt;">
					<path id="&lt;Path&gt;" class="s0" d="m102.65 547.98v-161.64l0.28-1.49c9.1-47.44 29.01-88.93 57.59-119.97 24.59-26.71 54.89-44.99 85.32-51.48l3.33-0.71 3.33 0.71c30.42 6.49 60.73 24.77 85.32 51.48 28.58 31.04 48.49 72.53 57.58 119.97l0.29 1.49v161.64z"/>
					<path id="&lt;Path&gt;" class="s0" d="m249.17 229.03c-49.77 10.61-111.78 60.92-130.55 158.83v144.14h130.55 130.54v-144.14c-18.76-97.91-80.77-148.22-130.54-158.83z"/>
					<path id="&lt;Path&gt;" class="s0" d="m102.65 547.98l15.97-15.98"/>
					<path id="&lt;Path&gt;" class="s0" d="m118.62 387.86l-15.97-1.52"/>
					<path id="&lt;Path&gt;" class="s0" d="m395.69 547.98l-15.98-15.98"/>
					<path id="&lt;Path&gt;" class="s0" d="m379.71 387.86l15.98-1.52"/>
					<path id="&lt;Path&gt;" class="s0" d="m249.17 212.69v16.34"/>
				</g>
				<path id="&lt;Path&gt;" class="s0" d="m323.34 360.3h-58.23v-45.14h-31.88v45.14h-58.24v31.87h58.24v139.83h31.88v-139.83h58.23z"/>
				<path id="&lt;Path&gt;" class="s1" d="m308.24 431.08l-12.17-6.45-12.18 6.45v-70.78h24.35z"/>
				<path id="&lt;Path&gt;" class="s1" d="m214.44 431.08l-12.17-6.45-12.17 6.45v-70.78h24.34z"/>
				<path id="&lt;Path&gt;" class="s0" d="m118.62 463.54c78.94-5.02 114.61 19.81 114.61 19.81"/>
				<path id="&lt;Path&gt;" class="s0" d="m379.71 463.54c-78.94-5.02-114.6 19.81-114.6 19.81"/>
				<g id="&lt;Group&gt;">
					<path id="&lt;Path&gt;" class="s0" d="m306 301.48v36.28"/>
					<path id="&lt;Path&gt;" class="s0" d="m324.14 319.62h-36.28"/>
					<path id="&lt;Path&gt;" class="s0" d="m297.88 311.5l16.24 16.24"/>
					<path id="&lt;Path&gt;" class="s0" d="m314.12 311.5l-16.24 16.24"/>
				</g>
			</g>
			<g id="&lt;Group&gt;">
				<g id="&lt;Group&gt;">
					<path id="&lt;Path&gt;" class="s2" d="m452.34 828.29l-11.63-17.01 7.25-5.08c2.06-1.6 0.28-4.39 0.28-4.39 3.25-2.72 1.45-5.51 1.45-5.51 2.92-2.8 0.96-5.74 0.96-5.74 3.18-2.75 0.49-6.02 0.49-6.02 0 0-13.9 9.52-14.94 12.52-1.04 3-0.81 7.49-0.81 7.49q-0.79-0.14-1.33-0.1 0-0.03 0.01-0.05c0-2.16-1.76-3.91-3.92-3.91-2.16 0-3.91 1.75-3.91 3.91 0 1.8 1.22 3.31 2.87 3.77-1.32 8.86 7.85 8.73 7.85 8.73l-0.25 15.44c0.05 5.08 5.69 3.46 5.69 0.92 2.28 3.28 5.97 0.17 5.47-1.51 1.77 0.7 5.21-0.92 4.47-3.46z"/>
					<path id="&lt;Path&gt;" class="s2" d="m426.49 806.36l-0.38 1.24 1.15-0.35z"/>
					<path id="&lt;Path&gt;" class="s2" d="m429.88 800.5c-0.57-1.35-1.17-3.25-0.91-4.79 0.47-2.69 9.62-14.93 9.62-14.93 3.4 1.52 1.27 4.52 1.27 4.52 3.35 1.93 0.85 5.53 0.85 5.53q0.57 0.37 0.9 0.76"/>
					<path id="&lt;Path&gt;" class="s2" d="m444.78 791.39c1.96 2.5 0 4.81 0 4.81 1.96 2.88-0.65 5.59-0.65 5.59 1.83 3.08-1.08 4.91-1.08 4.91"/>
					<path id="&lt;Path&gt;" class="s2" d="m449.69 796.3l-4.25 2.89"/>
					<path id="&lt;Path&gt;" class="s2" d="m448.24 801.81l-3.53 2.34"/>
					<path id="&lt;Path&gt;" class="s2" d="m450.65 790.56l-5 2.89"/>
					<path id="&lt;Path&gt;" class="s2" d="m428.35 803.22c-0.77 0-0.77 1.19 0 1.19 0.77 0 0.77-1.19 0-1.19z"/>
					<path id="&lt;Path&gt;" class="s2" d="m435.63 788.41c2.14 1.05 1.19 3.45 1.19 3.45 2.23 1.02 1.54 2.44 1.54 2.44"/>
					<path id="&lt;Path&gt;" class="s2" d="m439.86 785.3l-2.96 4.51"/>
					<path id="&lt;Path&gt;" class="s2" d="m440.71 790.83l-2.23 3.22"/>
					<path id="&lt;Path&gt;" class="s2" d="m437.02 816.91c1.11 0 2.22-0.27 3.2-0.8"/>
					<path id="&lt;Path&gt;" class="s2" d="m447.87 831.75c-0.08-0.16-4.82-9.71-4.82-9.71"/>
					<path id="&lt;Path&gt;" class="s2" d="m442.4 833.26l-1.18-9.22"/>
				</g>
				<path id="&lt;Path&gt;" class="s2" d="m475.87 808.22c0 20.17-16.36 36.53-36.53 36.53-20.17 0-36.52-16.36-36.52-36.53 0-20.17 16.35-36.53 36.52-36.53 20.17 0 36.53 16.36 36.53 36.53z"/>
			</g>
			<g id="&lt;Group&gt;">
				<g id="&lt;Group&gt;">
					<path id="&lt;Path&gt;" class="s2" d="m46.26 828.29l11.63-17.01-7.26-5.08c-2.05-1.6-0.27-4.39-0.27-4.39-3.26-2.72-1.45-5.51-1.45-5.51-2.92-2.8-0.97-5.74-0.97-5.74-3.17-2.75-0.48-6.02-0.48-6.02 0 0 13.89 9.52 14.94 12.52 1.04 3 0.81 7.49 0.81 7.49q0.78-0.14 1.32-0.1 0-0.03 0-0.05c0-2.16 1.75-3.91 3.91-3.91 2.16 0 3.91 1.75 3.91 3.91 0 1.8-1.21 3.31-2.87 3.77 1.32 8.86-7.85 8.73-7.85 8.73l0.26 15.44c-0.05 5.08-5.69 3.46-5.69 0.92-2.29 3.28-5.98 0.17-5.47-1.51-1.78 0.7-5.22-0.92-4.47-3.46z"/>
					<path id="&lt;Path&gt;" class="s2" d="m72.1 806.36l0.38 1.24-1.14-0.35z"/>
					<path id="&lt;Path&gt;" class="s2" d="m68.71 800.5c0.58-1.35 1.18-3.25 0.91-4.79-0.47-2.69-9.61-14.93-9.61-14.93-3.41 1.52-1.27 4.52-1.27 4.52-3.35 1.93-0.85 5.53-0.85 5.53q-0.58 0.37-0.9 0.76"/>
					<path id="&lt;Path&gt;" class="s2" d="m53.82 791.39c-1.97 2.5 0 4.81 0 4.81-1.97 2.88 0.64 5.59 0.64 5.59-1.83 3.08 1.09 4.91 1.09 4.91"/>
					<path id="&lt;Path&gt;" class="s2" d="m48.91 796.3l4.24 2.89"/>
					<path id="&lt;Path&gt;" class="s2" d="m50.36 801.81l3.52 2.34"/>
					<path id="&lt;Path&gt;" class="s2" d="m47.94 790.56l5 2.89"/>
					<path id="&lt;Path&gt;" class="s2" d="m70.24 803.22c0.77 0 0.77 1.19 0 1.19-0.76 0-0.77-1.19 0-1.19z"/>
					<path id="&lt;Path&gt;" class="s2" d="m62.96 788.41c-2.13 1.05-1.18 3.45-1.18 3.45-2.24 1.02-1.54 2.44-1.54 2.44"/>
					<path id="&lt;Path&gt;" class="s2" d="m58.74 785.3l2.95 4.51"/>
					<path id="&lt;Path&gt;" class="s2" d="m57.89 790.83l2.22 3.22"/>
					<path id="&lt;Path&gt;" class="s2" d="m61.57 816.91c-1.11 0-2.22-0.27-3.2-0.8"/>
					<path id="&lt;Path&gt;" class="s2" d="m50.73 831.75c0.07-0.16 4.82-9.71 4.82-9.71"/>
					<path id="&lt;Path&gt;" class="s2" d="m56.2 833.26l1.17-9.22"/>
				</g>
				<path id="&lt;Path&gt;" class="s2" d="m22.73 808.22c0 20.17 16.35 36.53 36.52 36.53 20.18 0 36.53-16.36 36.53-36.53 0-20.17-16.35-36.53-36.53-36.53-20.17 0-36.52 16.36-36.52 36.53z"/>
			</g>
		</g>
	</g>
	<filter id="f1">
		<feFlood flood-color="#737373" flood-opacity="1" />
		<feBlend mode="normal" in2="SourceGraphic"/>
		<feComposite in2="SourceAlpha" operator="in" />
	</filter>
	<g id="TEXTS" filter="url(#f1)">
		<path id="Falando com o Profeta" class="s3" aria-label="Falando com o Profeta"  d="m161 147.7v5.2h-15.3v2.9q1.5 0.1 4.3 0.1 5 0 10.1-0.2v5.5q-5.1-0.2-10.8-0.2-2.4 0-3.6 0v7h-6.6q0.2-5.4 0.2-10.2 0-4.7-0.2-10.1zm20.1 12.3v3.3q0 1 0.3 1.4 0.2 0.4 0.8 0.6l-0.1 2.6q-0.9 0.1-1.5 0.2-0.7 0-1.8 0-2.4 0-3.2-1-0.8-1.1-0.8-2.8v-0.7q-0.8 2.3-2.3 3.4-1.6 1.1-4 1.1-2.8 0-4.2-1.1-1.4-1.1-1.4-3.3 0-1.8 1.2-2.9 1.2-1 3.7-1.4-2.1-1.5-4.2-2.6 1.6-2.2 3.8-3.3 2.2-1.1 5.2-1.1 4.4 0 6.4 1.9 2.1 1.8 2.1 5.7zm-7.9-2.6q-1.4 0-2.5 0.4-1.1 0.5-2 1.5 1.7-0.2 4.2-0.2 1.1 0 1.5-0.3 0.4-0.2 0.4-0.6 0-0.4-0.4-0.6-0.4-0.2-1.2-0.2zm-2.9 6.2q1.6 0 2.8-0.6 1.3-0.6 1.7-1.6v-0.7q-0.6 0.3-1.4 0.5-0.8 0.2-2 0.3l-1 0.2q-1.6 0.3-1.6 1.1 0 0.8 1.5 0.8zm20.4-6.8q0 1.7 0 5.1 0 4.2 0.1 6.1h-6.6v-3.2q0-5.2 0-8 0-2.7 0-7.6v-3.1h6.6q-0.1 4-0.1 6.5 0 2.8 0 4.2zm20.4 3.2v3.3q0 1 0.3 1.4 0.2 0.4 0.8 0.6l-0.1 2.6q-0.9 0.1-1.5 0.2-0.7 0-1.8 0-2.4 0-3.2-1-0.8-1.1-0.8-2.8v-0.7q-0.8 2.3-2.3 3.4-1.6 1.1-4 1.1-2.8 0-4.2-1.1-1.4-1.1-1.4-3.3 0-1.8 1.2-2.9 1.2-1 3.7-1.4-2.1-1.5-4.2-2.6 1.6-2.2 3.8-3.3 2.2-1.1 5.2-1.1 4.4 0 6.4 1.9 2.1 1.8 2.1 5.7zm-7.9-2.6q-1.4 0-2.5 0.4-1.1 0.5-2 1.5 1.7-0.2 4.2-0.2 1.1 0 1.5-0.3 0.4-0.2 0.4-0.6 0-0.4-0.4-0.6-0.4-0.2-1.2-0.2zm-2.9 6.2q1.6 0 2.8-0.6 1.3-0.6 1.7-1.6v-0.7q-0.6 0.3-1.4 0.5-0.8 0.2-2 0.3l-1 0.2q-1.6 0.3-1.6 1.1 0 0.8 1.5 0.8zm31.1 4.4h-6.3q0.2-4.1 0.2-7.6 0-1.2-0.7-2-0.5-0.7-1.5-0.7-0.9 0-1.5 0.9-0.7 0.8-0.8 2.2-0.1 2.1-0.1 3 0 1.9 0.2 4.2h-6.7q0.2-4 0.2-7.6 0-3.6-0.2-7.7 1.8 0.1 2.8 0.1 1 0 2.8-0.1l0.8 4.1q0.7-2.2 2.1-3.3 1.3-1.1 3.1-1.1 1.7 0 3 0.8 1.2 0.7 1.8 2 0.7 1.2 0.7 2.8v4q0 3.8 0.1 6zm20.1-21.8q-0.2 5.2-0.2 10.9 0 5.6 0.2 10.9h-6.3v-3.4q-0.8 1.9-2.3 2.8-1.6 0.9-3.7 0.9-1.8 0-3.2-1.1-1.5-1-2.3-2.8-0.8-1.8-0.8-3.9 0-2.1 0.8-3.9 0.8-1.9 2.3-3 1.5-1.2 3.3-1.2 2.2 0 3.8 0.9 1.5 0.9 2.3 2.8 0-1.5-0.1-5.1-0.1-3.4-0.1-4.8zm-9.3 17.4q1.3 0 2.2-0.8 0.9-0.8 0.9-2.4 0-1.5-0.9-2.2-0.9-0.7-2.2-0.7-1.2 0-2.1 0.8-0.9 0.8-0.9 2.1 0 1.4 0.8 2.3 0.8 0.9 2.2 0.9zm21 4.7q-4.8 0-7.1-2.2-2.2-2.2-2.2-5.8 0-3.5 2.2-5.7 2.3-2.2 7.1-2.2 3.2 0 5.3 1.1 2.2 1 3.3 2.8 1 1.8 1 4 0 3.6-2.4 5.8-2.4 2.2-7.2 2.2zm0.1-4.8q1.8 0 2.7-0.9 0.9-0.8 0.9-2.3 0-1.4-0.9-2.2-0.9-0.9-2.7-0.9-1.9 0-2.7 0.9-0.8 0.8-0.8 2.2 0 1.5 0.8 2.3 0.8 0.9 2.7 0.9zm22.5-3.1q0.1 1.4 0.9 2.2 0.9 0.9 2.6 0.9 0.9 0 1.6-0.3 0.7-0.4 1.4-1.1 2.3 0.9 5.5 1.6-0.9 2.2-3.1 3.4-2.2 1.2-5.7 1.2-4.7 0-6.9-2.2-2.2-2.2-2.2-5.7 0-3.6 2.2-5.8 2.2-2.2 6.9-2.2 3.5 0 5.7 1.2 2.2 1.2 3.1 3.4-2.5 0.5-5.5 1.6-0.7-0.7-1.4-1.1-0.7-0.3-1.6-0.3-1.7 0-2.6 0.9-0.8 0.8-0.9 2.3zm23.4 7.9q-4.8 0-7.1-2.2-2.2-2.2-2.2-5.8 0-3.5 2.2-5.7 2.3-2.2 7.1-2.2 3.2 0 5.3 1.1 2.2 1 3.3 2.8 1 1.8 1 4 0 3.6-2.4 5.8-2.4 2.2-7.2 2.2zm0.1-4.8q1.8 0 2.7-0.9 0.9-0.8 0.9-2.3 0-1.4-0.9-2.2-0.9-0.9-2.7-0.9-1.9 0-2.7 0.9-0.8 0.8-0.8 2.2 0 1.5 0.8 2.3 0.8 0.9 2.7 0.9zm39.1 4.5h-6.6q0.3-3.7 0.3-7.6 0-1.3-0.7-2-0.6-0.7-1.6-0.7-1 0-1.7 0.9-0.7 0.8-0.7 2.4 0 4.9 0.2 7h-6.3q0.2-4.1 0.2-7.6 0-1.2-0.7-2-0.6-0.7-1.5-0.7-1 0-1.6 0.9-0.7 0.8-0.8 2.2 0 2.1 0 3 0 1.9 0.1 4.2h-6.7q0.2-4 0.2-7.6 0-3.6-0.2-7.7 1.8 0.1 2.8 0.1 1 0 2.8-0.1l0.9 4.1q0.6-2.2 2-3.3 1.4-1.1 3.2-1.1 2.2 0 3.6 1.2 1.4 1.2 1.7 3.2 0.7-2 2.2-3.2 1.5-1.2 3.4-1.2 2.6 0 4 1.7 1.4 1.7 1.4 4.7v4.6q0 3.2 0.1 4.6zm17.8 0.3q-4.8 0-7.1-2.2-2.2-2.2-2.2-5.8 0-3.5 2.2-5.7 2.3-2.2 7.1-2.2 3.2 0 5.3 1.1 2.2 1 3.3 2.8 1 1.8 1 4 0 3.6-2.4 5.8-2.4 2.2-7.2 2.2zm0.1-4.8q1.8 0 2.7-0.9 0.9-0.8 0.9-2.3 0-1.4-0.9-2.2-0.9-0.9-2.7-0.9-1.9 0-2.7 0.9-0.8 0.8-0.8 2.2 0 1.5 0.8 2.3 0.8 0.9 2.7 0.9zm-165.3 17.2h5.9q5.5 0 7.7 2 2.2 1.9 2.2 5.5 0 2.5-0.9 4.2-0.8 1.7-3 2.7-2.2 1-6 1h-5.9v4.9h-6.9q0.3-5.4 0.3-10.2 0-4.7-0.3-10.1h6.9zm0 9.9h3.9q2.3 0 3.5-0.1 1.1-0.2 1.6-0.7 0.5-0.5 0.5-1.4 0-0.9-0.5-1.4-0.4-0.5-1.6-0.6-1.1-0.2-3.5-0.2h-3.9zm23.8-5l0.8 4.2q1.2-4.2 5.9-4.2 0.8 0 1.6 0.1l-0.9 6.3q-2.1-0.8-3.3-0.8-1.6 0-2.4 0.9-0.8 1-0.8 2.6v1.8q0 2 0.1 4.4h-6.7q0.3-4 0.3-7.6 0-3.6-0.3-7.7 1.9 0.1 2.9 0.1 1 0 2.8-0.1zm18.4 15.6q-4.8 0-7.1-2.2-2.2-2.2-2.2-5.8 0-3.5 2.2-5.6 2.3-2.2 7.1-2.2 3.2 0 5.3 1 2.2 1.1 3.3 2.9 1 1.7 1 3.9 0 3.7-2.4 5.8-2.4 2.2-7.2 2.2zm0.1-4.7q1.8 0 2.7-0.9 0.9-0.9 0.9-2.3 0-1.4-0.9-2.3-0.9-0.9-2.7-0.9-1.9 0-2.7 0.9-0.8 0.9-0.8 2.3 0 1.4 0.8 2.3 0.8 0.9 2.7 0.9zm18-12.1q0 0.1 0 0.3 0 0.5 0.3 0.7 0.4 0.3 1.1 0.3h3.7v5q-2.3-0.2-3.7-0.3 0 5.2 0.2 10.5h-6.6q0-3.3 0-10.4-0.6 0-2 0.2v-5h2v-0.5q0-2.2 0.9-3.8 0.9-1.5 2.4-2.3 1.6-0.8 3.7-0.8 1.6 0 3.3 0.5-0.5 2.1-1.1 5.1l-0.2 0.9q-0.6-0.6-1.3-0.8-0.8-0.3-1.4-0.3-0.5 0-0.8 0.2-0.4 0.1-0.5 0.5zm24.1 9.5h-3.4-9.2q0.2 1.3 1.1 2.1 0.9 0.7 2.5 0.7 1.2 0 2.2-0.4 1.1-0.5 1.7-1.4 1.9 1 5 2-0.9 2-3.2 3.2-2.2 1.1-5.9 1.1-4.8 0-7.1-2.2-2.2-2.2-2.2-5.8 0-3.5 2.2-5.6 2.3-2.2 7.1-2.2 2.8 0 4.9 0.9 2.1 1 3.3 2.7 1.1 1.7 1.1 3.8 0 0.8-0.1 1.1zm-8.8-4.3q-1.4 0-2.3 0.5-0.9 0.6-1.3 1.5h6.6q-0.3-0.9-1.1-1.4-0.7-0.6-1.9-0.6zm23.2-3.9v5q-2.6-0.2-4.7-0.3v3q0 1.5 0.6 2.4 0.7 0.8 2.4 0.8 0.6 0 1.2-0.1-0.1 1-0.1 2.1 0 0.5 0.1 2.3-1.3 0.2-2.1 0.3-0.8 0-2.2 0-3.3 0-4.6-1.5-1.4-1.6-1.4-4.5v-4.7q-1.3 0-2.7 0.2v-5q1.4 0 2.5-0.9 1-0.9 1.2-2.2h7.6q-1.4 1.9-3.2 3.1zm20.3 7.3v3.3q0 0.9 0.2 1.3 0.2 0.4 0.9 0.6l-0.1 2.6q-0.9 0.2-1.6 0.2-0.6 0.1-1.7 0.1-2.4 0-3.2-1.1-0.8-1.1-0.8-2.8v-0.7q-0.8 2.3-2.4 3.5-1.5 1.1-3.9 1.1-2.8 0-4.3-1.1-1.4-1.2-1.4-3.4 0-1.8 1.2-2.8 1.3-1.1 3.8-1.5-2.2-1.5-4.3-2.6 1.7-2.1 3.9-3.2 2.1-1.1 5.2-1.1 4.3 0 6.4 1.8 2.1 1.9 2.1 5.8zm-7.9-2.7q-1.4 0-2.5 0.5-1.1 0.4-2 1.4 1.7-0.2 4.2-0.2 1 0 1.5-0.2 0.4-0.3 0.4-0.7 0-0.3-0.4-0.6-0.5-0.2-1.2-0.2zm-3 6.2q1.6 0 2.9-0.6 1.2-0.6 1.7-1.6v-0.7q-0.7 0.3-1.5 0.5-0.8 0.2-1.9 0.4l-1 0.1q-1.6 0.3-1.6 1.1 0 0.8 1.4 0.8z"/>
		<g id="&lt;Group&gt;">
			<g id="&lt;Group&gt;">
				<g id="&lt;Group&gt;">
				</g>
				<g id="&lt;Group&gt;">
				</g>
			</g>
		</g>
		<g id="&lt;Group&gt;">
		</g>
	</g>
</svg>