<svg version="1.2" xmlns="http://www.w3.org/2000/svg" viewBox="0 0 10980 6463" width="10980" height="6463">
	<style>
		.s0 { fill: none;stroke: #1b130c;stroke-miterlimit:10;stroke-width: 11.9 } 
		.s1 { fill: #1b130c } 
		.s2 { fill: #737373 } 
		.s3 { fill: none;stroke: #1b130c;stroke-linecap: round;stroke-linejoin: round;stroke-width: 11.9 } 
	</style>
	<g id="BACKGROUND">
		<g id="&lt;Group&gt;">
		</g>
	</g>
	<g id="OBJECTS">
		<filter id="f0">
			<feFlood flood-color="#737373" flood-opacity="1" />
			<feBlend mode="normal" in2="SourceGraphic"/>
			<feComposite in2="SourceAlpha" operator="in" />
		</filter>
		<g id="&lt;Group&gt;" filter="url(#f0)">
			<g id="&lt;Group&gt;">
			</g>
			<g id="&lt;Group&gt;">
			</g>
			<g id="&lt;Group&gt;">
				<path id="&lt;Path&gt;" class="s0" d="m7609.41 816.15v767.2h805.35v-767.2q0.01-20.02-1.93-39.54c-4.73-48.61-18.1-94.68-38.57-136.65-9.85-20.2-21.34-39.46-34.28-57.58-27.54-38.54-61.68-72.02-100.77-98.75-18.29-12.53-37.63-23.57-57.91-32.95-41.92-19.45-87.71-31.9-135.94-35.83q-16.44-1.35-33.26-1.36-16.81 0.01-33.26 1.36c-48.22 3.93-94.01 16.38-135.93 35.83-20.28 9.38-39.65 20.42-57.94 32.95-20.67 14.14-39.95 30.16-57.61 47.81-15.74 15.75-30.18 32.76-43.16 50.94-12.95 18.12-24.43 37.38-34.28 57.58-20.47 41.97-33.84 88.04-38.57 136.65q-1.94 19.52-1.94 39.54z"/>
			</g>
			<g id="&lt;Group&gt;">
			</g>
			<g id="&lt;Group&gt;">
			</g>
			<g id="&lt;Group&gt;">
				<path id="&lt;Path&gt;" class="s0" d="m5577.95 1090.26h-2003.76"/>
			</g>
			<path id="&lt;Path&gt;" class="s0" d="m2057.05 5370.75v-3759.73h656.45"/>
			<path id="&lt;Path&gt;" class="s0" d="m2713.5 1090.26h-536.18v520.76"/>
			<path id="&lt;Path&gt;" class="s0" d="m2713.5 1328.7h-844.57v4094.85"/>
			<path id="&lt;Path&gt;" class="s0" d="m5577.97 209h-4016.97v2038.01h496.05"/>
			<path id="&lt;Path&gt;" class="s0" d="m3143.83 385.82v-176.82"/>
			<path id="&lt;Path&gt;" class="s0" d="m2796.12 562.64h-1235.12"/>
			<g id="&lt;Group&gt;">
				<path id="&lt;Path&gt;" class="s0" d="m5577.98 1090.26h2003.76"/>
			</g>
			<path id="&lt;Path&gt;" class="s0" d="m8442.44 1611h656.51v636.03 3123.69"/>
			<path id="&lt;Path&gt;" class="s0" d="m8442.43 1090.26h536.19v520.76"/>
			<path id="&lt;Path&gt;" class="s0" d="m8442.43 1328.7h844.58v4094.85"/>
			<path id="&lt;Path&gt;" class="s0" d="m5577.97 209h4016.97v2038.01h-496.05"/>
			<path id="&lt;Path&gt;" class="s0" d="m8012.1 385.82v-176.82"/>
			<path id="&lt;Path&gt;" class="s0" d="m8359.81 562.64h1235.13"/>
			<path id="&lt;Path&gt;" class="s0" d="m1868.93 4965.71h-542.93"/>
			<path id="&lt;Path&gt;" class="s0" d="m1868.93 4711.69h-542.93"/>
			<path id="&lt;Path&gt;" class="s0" d="m1868.93 4457.68h-542.93"/>
			<path id="&lt;Path&gt;" class="s0" d="m9287.01 4965.71h542.93"/>
			<path id="&lt;Path&gt;" class="s0" d="m9287.01 4711.69h542.93"/>
			<path id="&lt;Path&gt;" class="s0" d="m9287.01 4457.68h542.93"/>
			<path id="&lt;Path&gt;" class="s0" d="m2057.05 6064.9v398.1"/>
			<path id="&lt;Path&gt;" class="s0" d="m9098.86 6064.9v398.1"/>
			<path id="&lt;Path&gt;" class="s0" d="m2404.12 5717.82h3173.83"/>
			<path id="&lt;Path&gt;" class="s0" d="m8751.78 5717.82h-3173.83"/>
			<path id="&lt;Path&gt;" class="s1" d="m2164.23 3939.27v0.01c-59.2 0-107.18 47.98-107.18 107.18 0-59.2-47.99-107.18-107.19-107.18v-0.01c59.2 0 107.19-47.98 107.19-107.18 0 59.2 47.98 107.18 107.18 107.18z"/>
			<path id="&lt;Path&gt;" class="s2" d="m2164.23 3582.35c-59.2 0-107.18 47.99-107.18 107.19 0-59.2-47.99-107.19-107.19-107.19 59.2 0 107.19-47.99 107.19-107.19 0 59.2 47.98 107.19 107.18 107.19z"/>
			<path id="&lt;Path&gt;" class="s1" d="m2422.66 562.64c-110.39 0-199.88 89.49-199.88 199.88 0-110.39-89.5-199.88-199.89-199.88 110.39 0 199.89-89.49 199.89-199.89 0 110.4 89.49 199.89 199.88 199.89z"/>
			<path id="&lt;Path&gt;" class="s1" d="m4020.09 1090.26v0.01c-69.21 0-125.31 56.1-125.31 125.3 0-69.2-56.1-125.3-125.31-125.3v-0.01c69.21 0 125.31-56.1 125.31-125.3 0 69.2 56.1 125.3 125.31 125.3z"/>
			<path id="&lt;Path&gt;" class="s1" d="m1973.02 2026.16v0.01c-57.49 0-104.09 46.6-104.09 104.08 0-57.48-46.6-104.08-104.09-104.08v-0.01c57.49 0 104.09-46.6 104.09-104.08 0 57.48 46.6 104.08 104.09 104.08z"/>
			<path id="&lt;Path&gt;" class="s1" d="m3084.44 5721.01c-66.6 0-120.59 53.99-120.59 120.59 0-66.6-53.99-120.59-120.59-120.59 66.6 0 120.59-53.99 120.59-120.59 0 66.6 53.99 120.59 120.59 120.59z"/>
			<path id="&lt;Path&gt;" class="s1" d="m3412.63 5721.01c-66.6 0-120.59 53.99-120.59 120.59 0-66.6-53.99-120.59-120.59-120.59 66.6 0 120.59-53.99 120.59-120.59 0 66.6 53.99 120.59 120.59 120.59z"/>
			<path id="&lt;Path&gt;" class="s1" d="m8991.7 3939.27v0.01c59.2 0 107.19 47.98 107.19 107.18 0-59.2 47.99-107.18 107.19-107.18v-0.01c-59.2 0-107.19-47.98-107.19-107.18 0 59.2-47.99 107.18-107.19 107.18z"/>
			<path id="&lt;Path&gt;" class="s1" d="m8991.7 3582.35c59.2 0 107.19 47.99 107.19 107.19 0-59.2 47.99-107.19 107.19-107.19-59.2 0-107.19-47.99-107.19-107.19 0 59.2-47.99 107.19-107.19 107.19z"/>
			<path id="&lt;Path&gt;" class="s1" d="m8733.28 562.64c110.39 0 199.88 89.49 199.88 199.88 0-110.39 89.49-199.88 199.88-199.88-110.39 0-199.88-89.49-199.88-199.89 0 110.4-89.49 199.89-199.88 199.89z"/>
			<path id="&lt;Path&gt;" class="s1" d="m7135.85 1090.26v0.01c69.2 0 125.31 56.1 125.31 125.3 0-69.2 56.1-125.3 125.31-125.3v-0.01c-69.21 0-125.31-56.1-125.31-125.3 0 69.2-56.11 125.3-125.31 125.3z"/>
			<path id="&lt;Path&gt;" class="s1" d="m9182.92 2026.16v0.01c57.49 0 104.09 46.6 104.09 104.08 0-57.48 46.6-104.08 104.09-104.08v-0.01c-57.49 0-104.09-46.6-104.09-104.08 0 57.48-46.6 104.08-104.09 104.08z"/>
			<path id="&lt;Path&gt;" class="s1" d="m8071.5 5721.01c66.6 0 120.59 53.99 120.59 120.59 0-66.6 53.99-120.59 120.59-120.59-66.6 0-120.59-53.99-120.59-120.59 0 66.6-53.99 120.59-120.59 120.59z"/>
			<path id="&lt;Path&gt;" class="s1" d="m7743.31 5721.01c66.6 0 120.59 53.99 120.59 120.59 0-66.6 53.99-120.59 120.59-120.59-66.6 0-120.59-53.99-120.59-120.59 0 66.6-53.99 120.59-120.59 120.59z"/>
		</g>
		<filter id="f1">
			<feFlood flood-color="#737373" flood-opacity="1" />
			<feBlend mode="normal" in2="SourceGraphic"/>
			<feComposite in2="SourceAlpha" operator="in" />
		</filter>
		<g id="&lt;Group&gt;" filter="url(#f1)">
			<g id="&lt;Group&gt;">
				<g id="&lt;Group&gt;">
					<path id="&lt;Path&gt;" class="s3" d="m1933.56 5908.57l110.51-161.64-68.91-48.27c-19.55-15.2-2.66-41.75-2.66-41.75-30.89-25.83-13.76-52.38-13.76-52.38-27.75-26.55-9.17-54.55-9.17-54.55-30.17-26.07-4.58-57.2-4.58-57.2 0 0 132.02 90.51 141.92 118.99 9.89 28.48 7.72 71.2 7.72 71.2 4.97-0.96 9.18-1.15 12.57-1.01q-0.01-0.22-0.02-0.44c0-20.52 16.64-37.17 37.17-37.17 20.53 0 37.17 16.65 37.17 37.17 0 17.09-11.55 31.45-27.25 35.79 12.52 84.23-74.6 82.96-74.6 82.96l2.41 146.75c-0.48 48.28-54.07 32.83-54.07 8.69-21.72 31.22-56.8 1.67-51.97-14.29-16.85 6.61-49.56-8.72-42.48-32.85z"/>
					<path id="&lt;Path&gt;" class="s3" d="m2179.13 5700.18l3.62 11.75-10.86-3.37z"/>
					<path id="&lt;Path&gt;" class="s3" d="m2146.95 5644.43c5.44-12.82 11.15-30.86 8.62-45.45-4.46-25.6-91.36-141.92-91.36-141.92-32.33 14.49-12.06 42.96-12.06 42.96-31.84 18.34-8.09 52.6-8.09 52.6-3.67 2.31-6.47 4.73-8.55 7.22"/>
					<path id="&lt;Path&gt;" class="s3" d="m2005.4 5557.87c-18.66 23.82 0 45.7 0 45.7-18.66 27.36 6.12 53.1 6.12 53.1-17.38 29.29 10.3 46.67 10.3 46.67"/>
					<path id="&lt;Path&gt;" class="s3" d="m1958.74 5604.53l40.34 27.51"/>
					<path id="&lt;Path&gt;" class="s3" d="m1972.5 5656.91l33.51 22.19"/>
					<path id="&lt;Path&gt;" class="s3" d="m1949.57 5549.98l47.54 27.53"/>
					<path id="&lt;Path&gt;" class="s1" d="m2161.48 5670.31c7.3 0 7.32 11.34 0 11.34-7.29 0-7.31-11.34 0-11.34z"/>
					<path id="&lt;Path&gt;" class="s3" d="m2092.29 5529.55c-20.27 9.98-11.26 32.83-11.26 32.83-21.24 9.65-14.64 23.17-14.64 23.17"/>
					<path id="&lt;Path&gt;" class="s3" d="m2052.15 5500.02l28.08 42.89"/>
					<path id="&lt;Path&gt;" class="s3" d="m2044.06 5552.62l21.14 30.52"/>
					<path id="&lt;Path&gt;" class="s3" d="m2079.08 5800.4c-10.54 0.02-21.08-2.61-30.39-7.57"/>
					<path id="&lt;Path&gt;" class="s3" d="m1976.04 5941.42c0.72-1.55 45.78-92.3 45.78-92.3"/>
					<path id="&lt;Path&gt;" class="s3" d="m2028.01 5955.71l11.18-87.6"/>
				</g>
				<path id="&lt;Path&gt;" class="s3" d="m1709.97 5717.82c0 191.69 155.39 347.08 347.08 347.08 191.68 0 347.07-155.39 347.07-347.08 0-191.68-155.39-347.07-347.07-347.07-191.69 0-347.08 155.39-347.08 347.07z"/>
				<path id="&lt;Path&gt;" class="s3" d="m1744.97 5717.82c0 172.35 139.72 312.07 312.08 312.07 172.35 0 312.07-139.72 312.07-312.07 0-172.35-139.72-312.07-312.07-312.07-172.36 0-312.08 139.72-312.08 312.07z"/>
			</g>
			<g id="&lt;Group&gt;">
				<g id="&lt;Group&gt;">
					<g id="&lt;Group&gt;">
						<path id="&lt;Path&gt;" class="s0" d="m3177.09 414.85l-19.89 236.45q-6.64-0.45-13.37-0.44c-4.48 0-8.96 0.14-13.36 0.44l-19.89-236.45q16.44-1.35 33.25-1.36c11.21 0 22.31 0.47 33.26 1.36z"/>
						<path id="&lt;Path&gt;" class="s0" d="m3074.63 663.23c-8.68 3.21-17.09 7-25.15 11.37l-132.75-190.97c18.29-12.53 37.63-23.57 57.91-32.95z"/>
						<path id="&lt;Path&gt;" class="s0" d="m3001.12 711.09c-7 7.17-13.45 14.86-19.29 23.02l-200.15-94.15c9.85-20.2 21.33-39.46 34.28-57.58z"/>
						<path id="&lt;Path&gt;" class="s0" d="m2952.56 794.24c-3.1 10.57-5.31 21.5-6.58 32.7l-204.81 17.24v-28.03q0-20.02 1.94-39.54z"/>
						<path id="&lt;Path&gt;" class="s0" d="m2963.85 935.46l-222.68 154.8v-90.53l210.03-98.8c3.13 12.01 7.39 23.54 12.65 34.53z"/>
						<path id="&lt;Path&gt;" class="s0" d="m2967.95 1172.03c-5.43 13.86-13.56 26.47-18.93 40.34-2.85 7.3-4.84 15.21-5.15 23.04l-163.66 347.94h-39.04v-193.79l219.33-315.51c3.43 7.47 6.86 14.94 9.44 22.74 8.05 24.33 7.33 51.41-1.99 75.24z"/>
						<path id="&lt;Path&gt;" class="s0" d="m3546.52 1389.56v193.79h-39.04l-210.58-447.65c11.34-6.42 18.76-18.98 21.22-31.93 3.15-16.38-4.12-31.35-2.93-46.93q0-0.03 0-0.05z"/>
						<path id="&lt;Path&gt;" class="s0" d="m3546.52 999.76v90.5l-222.67-154.8c5.23-10.99 9.49-22.52 12.64-34.5z"/>
						<path id="&lt;Path&gt;" class="s0" d="m3546.52 816.15v28.03l-204.83-17.24c-1.27-11.2-3.48-22.13-6.58-32.7l209.48-17.63q1.94 19.52 1.93 39.54z"/>
						<path id="&lt;Path&gt;" class="s0" d="m3506.02 639.96l-200.19 94.15q-8.77-12.24-19.28-22.99l185.18-128.74c12.95 18.12 24.44 37.38 34.29 57.58z"/>
						<path id="&lt;Path&gt;" class="s0" d="m3370.97 483.63l-132.79 190.97c-8.05-4.37-16.46-8.19-25.15-11.4l100-212.52c20.28 9.38 39.65 20.42 57.94 32.95z"/>
					</g>
				</g>
				<g id="&lt;Group&gt;">
					<path id="&lt;Path&gt;" class="s0" d="m2713.5 1611.02v-794.87c0-14.3 0.7-28.53 2.08-42.29 4.96-50.96 18.83-100.11 41.23-146.03 10.46-21.44 22.79-42.15 36.64-61.54 29.54-41.36 65.77-76.86 107.67-105.5 19.61-13.44 40.45-25.3 61.91-35.22 45.88-21.29 94.77-34.18 145.3-38.3 11.89-0.96 23.83-1.45 35.5-1.45 11.68 0 23.62 0.49 35.49 1.45 50.55 4.12 99.44 17.01 145.35 38.31 21.48 9.93 42.33 21.79 61.94 35.23 21.95 15.02 42.66 32.2 61.53 51.07 16.84 16.85 32.36 35.16 46.11 54.42 13.85 19.38 26.18 40.09 36.64 61.53 22.39 45.92 36.27 95.07 41.23 146.1 1.37 13.69 2.07 27.92 2.07 42.22v794.87z"/>
				</g>
				<g id="&lt;Group&gt;">
					<path id="&lt;Path&gt;" class="s0" d="m3546.52 816.15v767.2h-805.35v-767.2q0-20.02 1.94-39.54c4.73-48.61 18.09-94.68 38.57-136.65 9.85-20.2 21.33-39.46 34.28-57.58 27.53-38.54 61.67-72.02 100.77-98.75 18.29-12.53 37.63-23.57 57.91-32.95 41.92-19.45 87.71-31.9 135.94-35.83q16.44-1.35 33.25-1.36c11.21 0 22.31 0.47 33.26 1.36 48.23 3.93 94.02 16.38 135.94 35.83 20.28 9.38 39.65 20.42 57.94 32.95 20.66 14.14 39.95 30.16 57.6 47.81 15.75 15.75 30.19 32.76 43.16 50.94 12.95 18.12 24.44 37.38 34.29 57.58 20.47 41.97 33.83 88.04 38.57 136.65q1.94 19.52 1.93 39.54z"/>
				</g>
				<path id="&lt;Path&gt;" class="s0" d="m3313.8 954.02c18.54-30.26 29.25-65.85 29.25-103.95 0-110.03-89.18-199.21-199.22-199.21-110.01 0-199.21 89.18-199.21 199.21 0 53.51 21.11 102.07 55.45 137.88"/>
				<g id="&lt;Group&gt;">
					<path id="&lt;Path&gt;" class="s0" d="m3295.02 1136.69v446.66h-302.34v-308.98"/>
					<path id="&lt;Path&gt;" class="s0" d="m3018.89 990.21c-20.04-3.03-43.75-6.01-58.93 7.39-13.35 11.79-14.72 32.51-9.99 49.68 4.74 17.18 14.38 32.62 19.98 49.53 8.04 24.3 7.32 51.39-2.01 75.23-5.41 13.84-13.57 26.48-18.93 40.33-5.37 13.86-7.73 29.91-1.33 43.32 5.23 10.95 16.25 18.94 28.29 20.49 12.04 1.56 24.72-3.37 32.56-12.64 11.23-13.28 11.57-32.23 13.45-49.51 1.88-17.29 7.86-36.87 23.97-43.43 14.97-6.09 34.12 1.36 47.06-8.32 7.12-5.31 10.17-14.46 11.73-23.2 1.56-8.75 2.07-17.85 5.78-25.92 3.72-8.07 11.81-15.04 20.62-13.95 11.87 1.46 17.47 15.62 17.94 27.57 0.47 11.95-1.46 24.92 4.95 35.01 6.67 10.49 21.19 14.25 33.04 10.51 11.85-3.73 21-13.66 26.34-24.89 5.34-11.22 7.32-23.72 8.68-36.07 1.09-9.86 5.72-32.94 20.8-30.01 15.62 3.03 7.9 32.1 12.65 43.1 5.81 13.46 23.86 18.76 37.43 13.21 13.57-5.55 22.39-19.47 25.15-33.87 3.15-16.39-4.13-31.37-2.95-46.92 1.2-15.82 8.69-31.56 10.57-47.53 2.18-18.47 0.14-38.3-10.59-53.48-8.19-11.59-21.39-19.66-35.4-21.82-12.08-1.85-27.99 4.96-37.96 11.26-8.04 5.07-15.09 11.53-22.69 17.23-27.96 20.95-62.93 30.98-97.76 33.76-30.39 2.42-60.9-0.39-91.03-4.38-3.6-0.48-7.43-1.08-11.42-1.68z"/>
				</g>
				<g id="&lt;Group&gt;">
					<path id="&lt;Path&gt;" class="s0" d="m3143.85 744.1c0 0-134.72 147.08-16.24 200.13 10.3 4.61 22.18 4.61 32.48 0 118.47-53.05-16.24-200.13-16.24-200.13z"/>
					<path id="&lt;Path&gt;" class="s1" d="m3143.85 814.75c0 0-62.25 67.96-31.13 107.16 15.69 19.75 46.57 19.75 62.25 0 31.13-39.2-31.12-107.16-31.12-107.16z"/>
				</g>
			</g>
			<g id="&lt;Group&gt;">
				<g id="&lt;Group&gt;">
					<path id="&lt;Path&gt;" class="s3" d="m9222.38 5908.57l-110.52-161.64 68.92-48.27c19.55-15.2 2.66-41.75 2.66-41.75 30.89-25.83 13.75-52.38 13.75-52.38 27.76-26.55 9.18-54.55 9.18-54.55 30.17-26.07 4.58-57.2 4.58-57.2 0 0-132.02 90.51-141.92 118.99-9.9 28.48-7.72 71.2-7.72 71.2-4.97-0.96-9.18-1.15-12.58-1.01q0.02-0.22 0.03-0.44c0-20.52-16.65-37.17-37.17-37.17-20.53 0-37.17 16.65-37.17 37.17 0 17.09 11.54 31.45 27.25 35.79-12.52 84.23 74.6 82.96 74.6 82.96l-2.41 146.75c0.48 48.28 54.06 32.83 54.06 8.69 21.72 31.22 56.8 1.67 51.98-14.29 16.85 6.61 49.56-8.72 42.48-32.85z"/>
					<path id="&lt;Path&gt;" class="s3" d="m8976.81 5700.18l-3.62 11.75 10.86-3.37z"/>
					<path id="&lt;Path&gt;" class="s3" d="m9008.99 5644.43c-5.44-12.82-11.15-30.86-8.62-45.45 4.46-25.6 91.36-141.92 91.36-141.92 32.33 14.49 12.06 42.96 12.06 42.96 31.84 18.34 8.09 52.6 8.09 52.6 3.67 2.31 6.47 4.73 8.55 7.22"/>
					<path id="&lt;Path&gt;" class="s3" d="m9150.53 5557.87c18.67 23.82 0 45.7 0 45.7 18.67 27.36-6.11 53.1-6.11 53.1 17.38 29.29-10.3 46.67-10.3 46.67"/>
					<path id="&lt;Path&gt;" class="s3" d="m9197.19 5604.53l-40.33 27.51"/>
					<path id="&lt;Path&gt;" class="s3" d="m9183.44 5656.91l-33.51 22.19"/>
					<path id="&lt;Path&gt;" class="s3" d="m9206.37 5549.98l-47.54 27.53"/>
					<path id="&lt;Path&gt;" class="s1" d="m8994.45 5670.31c-7.3 0-7.31 11.34 0 11.34 7.3 0 7.31-11.34 0-11.34z"/>
					<path id="&lt;Path&gt;" class="s3" d="m9063.64 5529.55c20.28 9.98 11.27 32.83 11.27 32.83 21.24 9.65 14.64 23.17 14.64 23.17"/>
					<path id="&lt;Path&gt;" class="s3" d="m9103.79 5500.02l-28.09 42.89"/>
					<path id="&lt;Path&gt;" class="s3" d="m9111.88 5552.62l-21.14 30.52"/>
					<path id="&lt;Path&gt;" class="s3" d="m9076.85 5800.4c10.55 0.02 21.09-2.61 30.39-7.57"/>
					<path id="&lt;Path&gt;" class="s3" d="m9179.9 5941.42c-0.73-1.55-45.78-92.3-45.78-92.3"/>
					<path id="&lt;Path&gt;" class="s3" d="m9127.92 5955.71l-11.18-87.6"/>
				</g>
				<path id="&lt;Path&gt;" class="s3" d="m9445.97 5717.82c0 191.69-155.39 347.08-347.08 347.08-191.68 0-347.08-155.39-347.08-347.08 0-191.68 155.4-347.07 347.08-347.07 191.69 0 347.08 155.39 347.08 347.07z"/>
				<path id="&lt;Path&gt;" class="s3" d="m9410.96 5717.82c0 172.35-139.72 312.07-312.07 312.07-172.35 0-312.07-139.72-312.07-312.07 0-172.35 139.72-312.07 312.07-312.07 172.35 0 312.07 139.72 312.07 312.07z"/>
			</g>
			<g id="&lt;Group&gt;">
				<g id="&lt;Group&gt;">
					<g id="&lt;Group&gt;">
						<path id="&lt;Path&gt;" class="s0" d="m7978.84 414.85l19.9 236.45q6.64-0.45 13.36-0.44c4.48 0 8.97 0.14 13.37 0.44l19.89-236.45q-16.44-1.35-33.26-1.36-16.81 0.01-33.26 1.36z"/>
						<path id="&lt;Path&gt;" class="s0" d="m8081.3 663.23c8.69 3.21 17.1 7 25.15 11.37l132.76-190.97c-18.29-12.53-37.63-23.57-57.91-32.95z"/>
						<path id="&lt;Path&gt;" class="s0" d="m8154.82 711.09c7 7.17 13.44 14.86 19.28 23.02l200.16-94.15c-9.85-20.2-21.34-39.46-34.28-57.58z"/>
						<path id="&lt;Path&gt;" class="s0" d="m8203.37 794.24c3.1 10.57 5.32 21.5 6.59 32.7l204.8 17.24v-28.03q0.01-20.02-1.93-39.54z"/>
						<path id="&lt;Path&gt;" class="s0" d="m8192.09 935.46l222.67 154.8v-90.53l-210.03-98.8c-3.13 12.01-7.39 23.54-12.64 34.53z"/>
						<path id="&lt;Path&gt;" class="s0" d="m8187.99 1172.03c5.42 13.86 13.56 26.47 18.93 40.34 2.85 7.3 4.84 15.21 5.14 23.04l163.66 347.94h39.04v-193.79l-219.33-315.51c-3.43 7.47-6.86 14.94-9.43 22.74-8.05 24.33-7.33 51.41 1.99 75.24z"/>
						<path id="&lt;Path&gt;" class="s0" d="m7609.41 1389.56v193.79h39.04l210.59-447.65c-11.34-6.42-18.76-18.98-21.22-31.93-3.16-16.38 4.12-31.35 2.93-46.93q0-0.03 0-0.05z"/>
						<path id="&lt;Path&gt;" class="s0" d="m7609.41 999.76v90.5l222.68-154.8c-5.23-10.99-9.49-22.52-12.64-34.5z"/>
						<path id="&lt;Path&gt;" class="s0" d="m7609.41 816.15v28.03l204.83-17.24c1.28-11.2 3.49-22.13 6.59-32.7l-209.48-17.63q-1.94 19.52-1.94 39.54z"/>
						<path id="&lt;Path&gt;" class="s0" d="m7649.92 639.96l200.18 94.15q8.77-12.24 19.29-22.99l-185.19-128.74c-12.95 18.12-24.43 37.38-34.28 57.58z"/>
						<path id="&lt;Path&gt;" class="s0" d="m7784.97 483.63l132.78 190.97c8.05-4.37 16.47-8.19 25.15-11.4l-99.99-212.52c-20.28 9.38-39.65 20.42-57.94 32.95z"/>
					</g>
				</g>
				<g id="&lt;Group&gt;">
					<path id="&lt;Path&gt;" class="s0" d="m8442.43 1611.02v-794.87c0-14.3-0.7-28.53-2.07-42.29-4.96-50.96-18.84-100.11-41.24-146.03-10.45-21.44-22.78-42.15-36.63-61.54-29.55-41.36-65.77-76.86-107.67-105.5-19.61-13.44-40.45-25.3-61.91-35.22-45.88-21.29-94.78-34.18-145.3-38.3-11.89-0.96-23.83-1.45-35.51-1.45-11.67 0-23.61 0.49-35.48 1.45-50.55 4.12-99.45 17.01-145.36 38.31-21.48 9.93-42.33 21.79-61.93 35.23-21.96 15.02-42.67 32.2-61.53 51.07-16.85 16.85-32.36 35.16-46.12 54.42-13.84 19.38-26.17 40.09-36.63 61.53-22.4 45.92-36.27 95.07-41.24 146.1-1.37 13.69-2.07 27.92-2.07 42.22v794.87z"/>
				</g>
				<g id="&lt;Group&gt;">
					<path id="&lt;Path&gt;" class="s0" d="m7609.41 816.15v767.2h805.35v-767.2q0.01-20.02-1.93-39.54c-4.73-48.61-18.1-94.68-38.57-136.65-9.85-20.2-21.34-39.46-34.28-57.58-27.54-38.54-61.68-72.02-100.77-98.75-18.29-12.53-37.63-23.57-57.91-32.95-41.92-19.45-87.71-31.9-135.94-35.83q-16.44-1.35-33.26-1.36-16.81 0.01-33.26 1.36c-48.22 3.93-94.01 16.38-135.93 35.83-20.28 9.38-39.65 20.42-57.94 32.95-20.67 14.14-39.95 30.16-57.61 47.81-15.74 15.75-30.18 32.76-43.16 50.94-12.95 18.12-24.43 37.38-34.28 57.58-20.47 41.97-33.84 88.04-38.57 136.65q-1.94 19.52-1.94 39.54z"/>
				</g>
				<path id="&lt;Path&gt;" class="s0" d="m7842.13 954.02c-18.53-30.26-29.24-65.85-29.24-103.95 0-110.03 89.17-199.21 199.21-199.21 110.01 0 199.22 89.18 199.22 199.21 0 53.51-21.11 102.07-55.45 137.88"/>
				<g id="&lt;Group&gt;">
					<path id="&lt;Path&gt;" class="s0" d="m7860.92 1136.69v446.66h302.34v-308.98"/>
					<path id="&lt;Path&gt;" class="s0" d="m8137.04 990.21c20.05-3.03 43.76-6.01 58.94 7.39 13.35 11.79 14.72 32.51 9.98 49.68-4.74 17.18-14.37 32.62-19.97 49.53-8.05 24.3-7.32 51.39 2 75.23 5.42 13.84 13.57 26.48 18.94 40.33 5.37 13.86 7.72 29.91 1.33 43.32-5.23 10.95-16.25 18.94-28.29 20.49-12.04 1.56-24.73-3.37-32.57-12.64-11.23-13.28-11.56-32.23-13.44-49.51-1.88-17.29-7.86-36.87-23.97-43.43-14.97-6.09-34.12 1.36-47.07-8.32-7.11-5.31-10.17-14.46-11.72-23.2-1.56-8.75-2.08-17.85-5.79-25.92-3.71-8.07-11.8-15.04-20.61-13.95-11.87 1.46-17.47 15.62-17.94 27.57-0.47 11.95 1.46 24.92-4.95 35.01-6.67 10.49-21.19 14.25-33.04 10.51-11.86-3.73-21-13.66-26.34-24.89-5.34-11.22-7.32-23.72-8.69-36.07-1.09-9.86-5.71-32.94-20.79-30.01-15.62 3.03-7.91 32.1-12.65 43.1-5.81 13.46-23.87 18.76-37.44 13.21-13.57-5.55-22.39-19.47-25.15-33.87-3.14-16.39 4.13-31.37 2.95-46.92-1.2-15.82-8.68-31.56-10.57-47.53-2.18-18.47-0.13-38.3 10.6-53.48 8.19-11.59 21.39-19.66 35.4-21.82 12.08-1.85 27.99 4.96 37.96 11.26 8.04 5.07 15.09 11.53 22.69 17.23 27.96 20.95 62.93 30.98 97.76 33.76 30.39 2.42 60.89-0.39 91.03-4.38 3.59-0.48 7.43-1.08 11.41-1.68z"/>
				</g>
				<g id="&lt;Group&gt;">
					<path id="&lt;Path&gt;" class="s0" d="m8012.09 744.1c0 0 134.72 147.08 16.24 200.13-10.3 4.61-22.18 4.61-32.48 0-118.48-53.05 16.24-200.13 16.24-200.13z"/>
					<path id="&lt;Path&gt;" class="s1" d="m8012.09 814.75c0 0 62.25 67.96 31.13 107.16-15.69 19.75-46.57 19.75-62.26 0-31.12-39.2 31.13-107.16 31.13-107.16z"/>
				</g>
			</g>
		</g>
	</g>
	<filter id="f2">
		<feFlood flood-color="#737373" flood-opacity="1" />
		<feBlend mode="normal" in2="SourceGraphic"/>
		<feComposite in2="SourceAlpha" operator="in" />
	</filter>
	<g id="TEXTS" filter="url(#f2)">
		<path id="Falando com o Profeta" class="s1" aria-label="Falando com o Profeta"  d="m4016.5 413.6v50.1h-145.6v28.1q13.6 0.3 41 0.3 47.1 0 95.8-1.6v52.4q-48.7-1.8-102.8-1.8-22.5 0-34 0.2v66.7h-63.2q2.2-51.9 2.2-97.2 0-45.2-2.2-97.2zm193.8 118.1v31.9q0 9.1 2.1 12.8 2.2 3.8 8.6 5.4l-1.1 25.1q-8.5 1.4-15 1.9-6.1 0.5-16.6 0.5-23 0-30.5-10.1-7.5-10.5-7.5-26.5v-6.7q-7.7 21.9-22.7 32.6-14.8 10.7-37.8 10.7-26.8 0-40.4-10.7-13.4-10.7-13.4-31.8 0-17.4 11.5-27.3 11.5-9.9 35.6-13.7-20.3-14.4-40.7-25.2 16.1-20.3 36.7-30.7 20.6-10.8 50.1-10.8 41.2 0 61 18 20.1 17.7 20.1 54.6zm-75.5-25.4q-13.7 0-24.1 4.5-10.4 4.6-18.7 13.7 16-1.9 40.1-1.9 9.9 0 13.9-2.4 4.1-2.4 4.1-6.2 0-3.2-4.1-5.3-4-2.4-11.2-2.4zm-28.1 59.4q15 0 27-5.6 12.1-5.9 16.6-15.3v-6.9q-6.4 3.2-14.2 5-7.7 1.6-18.7 3.3l-9.6 1.6q-15 2.9-15 10.1 0 7.8 13.9 7.8zm192.9-64.8q-0.3 16.1-0.3 49.3 0 39.9 0.6 57.8h-63.2l0.3-30.3q0.5-49.8 0.5-76.8 0-25.7-0.5-72.8l-0.3-28.9h63.2q-0.6 38-0.6 62.1 0 26.8 0.3 39.6zm193.7 30.8v31.9q0 9.1 2.1 12.8 2.2 3.8 8.6 5.4l-1.1 25.1q-8.5 1.4-15 1.9-6.1 0.5-16.6 0.5-23 0-30.5-10.1-7.5-10.5-7.5-26.5v-6.7q-7.7 21.9-22.7 32.6-14.8 10.7-37.8 10.7-26.8 0-40.4-10.7-13.4-10.7-13.4-31.8 0-17.4 11.5-27.3 11.5-9.9 35.6-13.7-20.3-14.4-40.7-25.2 16.1-20.3 36.7-30.7 20.6-10.8 50.1-10.8 41.2 0 61 18 20.1 17.7 20.1 54.6zm-75.5-25.4q-13.7 0-24.1 4.5-10.4 4.6-18.7 13.7 16-1.9 40.1-1.9 9.9 0 13.9-2.4 4.1-2.4 4.1-6.2 0-3.2-4.1-5.3-4-2.4-11.2-2.4zm-28.1 59.4q15 0 27-5.6 12.1-5.9 16.6-15.3v-6.9q-6.4 3.2-14.2 5-7.7 1.6-18.7 3.3l-9.6 1.6q-15 2.9-15 10.1 0 7.8 13.9 7.8zm294.6 42.3h-60.2q1.6-39.4 1.6-72.6 0-11.7-5.9-18.7-5.6-7-14.4-7-8.9 0-15 8.1-6.2 7.7-7.3 21.4-0.5 20.3-0.5 28.9 0 18.2 1.1 39.9h-64q2.1-38.6 2.1-72.8 0-34.3-2.1-73.4 17.7 0.8 27 0.8 9.9 0 27.1-0.8l7.7 39.4q6.2-21.4 19.3-31.6 13.1-10.5 30.5-10.5 16.1 0 27.9 7.3 11.7 6.9 17.6 19 6.2 12 6.2 27v38.6q0 35.6 1.3 57zm196.5-208.3q-1.6 49.8-1.6 104.2 0 53.8 1.6 104.1h-60.5l0.8-32.1q-7.8 17.9-22.5 26.5-14.7 8.3-34.8 8.3-17.4 0-31.3-9.9-14-9.9-21.7-26.8-7.8-17.1-7.8-37.5 0-20.1 7.8-37.7 7.7-18 21.7-28.7 14.1-11 32.1-11 20.9 0 35.6 8.9 15 8.5 22.2 26.8 0-15.3-1.1-49-1-32.7-1-46.1zm-88.9 166q13.1 0 21.4-7.2 8.3-7.5 8.3-23.6 0-14.2-8.3-20.9-8.3-6.7-20.9-6.7-12 0-20.3 7.8-8.1 7.5-8.1 19.8 0 13.7 7.5 22.2 7.5 8.6 20.4 8.6zm197 45q-45.8 0-67.5-20.9-21.4-21.2-21.4-55.4 0-33.5 21.4-54.4 21.7-20.9 67.5-20.9 30.8 0 51.4 10.2 20.9 9.9 30.8 27.1 9.9 16.8 9.9 38 0 34.5-23 55.4-22.8 20.9-69.1 20.9zm1.1-45.5q17.4 0 25.9-8.3 8.6-8.3 8.6-22.3 0-13.1-8.6-21.4-8.5-8.5-25.9-8.5-17.4 0-25.5 8.3-8 8.3-8 21.6 0 14 8 22.3 8.1 8.3 25.5 8.3zm217-30.3q0.6 13.7 8.6 22 8.3 8.3 24.4 8.3 8.8 0 15.8-3.2 6.9-3.5 12.8-10.2 22.8 8.8 53.3 15.2-8.9 20.7-30 32.2-20.9 11.5-54.4 11.5-44.7 0-66.1-20.9-21.4-20.9-21.4-54.9 0-34 21.4-54.9 21.4-20.9 66.1-20.9 33.5 0 54.4 11.6 21.1 11.5 30 32.1-23.8 5.1-53.3 15.2-5.9-6.6-12.8-9.9-7-3.4-15.8-3.4-16.1 0-24.4 8.3-8 8.3-8.6 21.9zm221.9 75.8q-45.8 0-67.5-20.9-21.4-21.2-21.4-55.4 0-33.5 21.4-54.4 21.7-20.9 67.5-20.9 30.8 0 51.4 10.2 20.9 9.9 30.8 27.1 9.9 16.8 9.9 38 0 34.5-23 55.4-22.8 20.9-69.1 20.9zm1.1-45.5q17.4 0 25.9-8.3 8.6-8.3 8.6-22.3 0-13.1-8.6-21.4-8.5-8.5-25.9-8.5-17.4 0-25.5 8.3-8 8.3-8 21.6 0 14 8 22.3 8.1 8.3 25.5 8.3zm379.5 42.8h-62.3q2.1-35.1 2.1-72.6 0-12-6.2-18.7-5.8-7-15.7-7-9.2 0-15.8 8.1-6.5 8-6.5 23.3v-0.3q0 47.4 1.4 67.2h-60.3q1.6-39.4 1.6-72.6 0-11.7-5.9-18.7-5.6-7-14.4-7-9.4 0-15.8 8.1-6.2 7.7-7.2 21.4-0.6 20.3-0.6 28.9 0 18.2 1.1 39.9h-64q2.2-38.6 2.2-72.8 0-34.3-2.2-73.4 17.7 0.8 27.1 0.8 9.9 0 27-0.8l8 39.6q6.2-21.6 19.6-31.8 13.4-10.5 30.8-10.5 20.8 0 34 11.6 13.3 11.5 16.6 29.9 6.1-19 20.6-30.2 14.4-11.3 32.9-11.3 24.1 0 37.8 16.4 13.6 16 13.6 44.2v44.4q0 30.2 0.5 43.9zm163.4 2.7q-45.8 0-67.5-20.9-21.4-21.2-21.4-55.4 0-33.5 21.4-54.4 21.7-20.9 67.5-20.9 30.8 0 51.4 10.2 20.9 9.9 30.8 27.1 9.9 16.8 9.9 38 0 34.5-23 55.4-22.8 20.9-69.1 20.9zm1.1-45.5q17.4 0 25.9-8.3 8.6-8.3 8.6-22.3 0-13.1-8.6-21.4-8.5-8.5-25.9-8.5-17.4 0-25.5 8.3-8 8.3-8 21.6 0 14 8 22.3 8.1 8.3 25.5 8.3zm229.5-151.3h55.7q53.3 0 74.2 19 20.9 18.7 20.9 53 0 23.6-8.3 40.2-8.3 16.3-29.2 25.7-20.9 9.1-57.6 9.1h-55.7v47.1h-65.8q2.1-51.9 2.1-97.2 0-45.2-2.1-97.2h65.8zm0 95.3h37q22.2 0 33.2-1.6 11.2-1.8 15.5-6.4 4.6-4.5 4.6-13.4 0-8.8-4.3-13.1-4-4.5-15.3-6.2-11-1.6-33.7-1.6h-37zm226.3-47.3l8 39.6q11.2-40.4 55.9-40.4 7.8 0 15 1l-8.5 60q-19.3-7.2-31.6-7.2-15.3 0-22.5 9.1-7.2 9.1-7.2 24.3v-0.2l-0.3 17.6q0 19 1.1 42.3h-64q2.1-38.5 2.1-72.8 0-34.3-2.1-73.3 17.6 0.8 27 0.8 9.9 0 27.1-0.8zm178.1 148.8q-45.8 0-67.5-20.9-21.4-21.1-21.4-55.4 0-33.5 21.4-54.3 21.7-20.9 67.5-20.9 30.8 0 51.4 10.1 20.9 10 30.8 27.1 9.9 16.9 9.9 38 0 34.5-23 55.4-22.8 20.9-69.1 20.9zm1.1-45.5q17.4 0 25.9-8.3 8.6-8.3 8.6-22.2 0-13.1-8.6-21.4-8.5-8.6-25.9-8.6-17.4 0-25.5 8.3-8 8.3-8 21.7 0 13.9 8 22.2 8.1 8.3 25.5 8.3zm168.8-115.7q-0.5 1.4-0.5 3.5 0 4.3 3.5 7 3.7 2.4 10.2 2.4h35.3v47.4q-22.2-1.9-35.3-2.2 0.2 49.8 2.1 100.4h-63.4q0.2-31.6 0.2-99.6-5.6 0.3-19.3 1.4v-47.4h19.1v-5.1q0-20.9 8.5-35.6 8.6-14.7 23.6-22.2 15.2-7.5 34.8-7.5 15.8 0 31.8 4.5-5.3 19.6-10.7 49l-1.6 8.1q-5.9-5.1-13.1-7.5-7-2.7-12.8-2.7-4.9 0-8.1 1.6-3.2 1.6-4.3 4.5zm236.7 91.6h-33.2-87.3q2.2 11.8 10.5 19.3 8.5 7.2 24.1 7.2 11.2 0 21.1-4.3 9.9-4.5 15.8-12.6 17.9 8.9 47.7 19-8.3 18.8-30.3 30-21.7 11-56.7 11-45.6 0-67.5-20.9-21.7-21.1-21.7-55.4 0-33.5 21.7-54.3 21.7-20.9 67.5-20.9 27.3 0 47.3 9.1 20.1 9.1 30.8 25.4 10.7 16.1 10.7 37 0 6.9-0.5 10.4zm-84.6-41.5q-13.4 0-22 5.1-8.5 5.1-12 13.9h63.2q-3.2-8.6-10.5-13.6-7.2-5.4-18.7-5.4zm225.1-37.2v47.4q-24.7-1.6-45-2.4l-0.3 28.3q0 14.5 6.2 22.8 6.4 8 22.5 8 6.1 0 11.7-1-1 9.9-1 20 0 4.9 0.5 22-11.8 2.1-19.8 2.7-8 0.5-20.9 0.5-31.3 0-44.4-15-12.9-15.2-12.9-42.3l0.3-45.2q-12.6 0.5-26.3 1.6v-47.4q14 0 23.6-8.8 9.6-8.9 11.5-21.2h72.8q-13.6 18.7-30.2 30zm187.3 69.3v31.9q0 9.1 2.2 12.8 2.1 3.8 8.5 5.4l-1 25.2q-8.6 1.3-15 1.8-6.2 0.6-16.6 0.6-23.1 0-30.6-10.2-7.5-10.4-7.5-26.5v-6.7q-7.7 22-22.7 32.7-14.7 10.7-37.8 10.7-26.7 0-40.4-10.7-13.4-10.7-13.4-31.9 0-17.4 11.5-27.3 11.6-9.9 35.6-13.7-20.3-14.4-40.6-25.1 16-20.4 36.6-30.8 20.6-10.7 50.1-10.7 41.2 0 61 17.9 20.1 17.7 20.1 54.6zm-75.5-25.4q-13.6 0-24.1 4.5-10.4 4.6-18.7 13.7 16-1.9 40.1-1.9 9.9 0 14-2.4 4-2.4 4-6.1 0-3.3-4-5.4-4.1-2.4-11.3-2.4zm-28.1 59.4q15 0 27-5.6 12.1-5.9 16.6-15.3v-6.9q-6.4 3.2-14.1 5.1-7.8 1.6-18.8 3.2l-9.6 1.6q-15 2.9-15 10.2 0 7.7 13.9 7.7z"/>
		<g id="&lt;Group&gt;">
		</g>
	</g>
</svg>